<?xml version="1.0" encoding="UTF-8"?>
<svg width="256px" height="256px" viewBox="0 0 256 256" version="1.1" xmlns="http://www.w3.org/2000/svg" xmlns:xlink="http://www.w3.org/1999/xlink">
    <!-- Generator: Sketch 52.6 (67491) - http://www.bohemiancoding.com/sketch -->
    <title>icon-256x256</title>
    <desc>Created with Sketch.</desc>
    <g id="icon-256x256" stroke="none" stroke-width="1" fill="none" fill-rule="evenodd">
        <rect fill="#25ADDE" x="0" y="0" width="256" height="256"></rect>
        <path d="M128,47 C87.1303105,47 54,79.7362629 54,120.119854 C54,176.467835 128,208 128,208 C128,208 202,177.503312 202,120.119854 C202,79.7362629 168.869689,47 128,47 M128,56.4997861 C163.502598,56.4997861 192.385865,85.0395185 192.385865,120.119854 C192.385865,163.460253 142.315448,190.648641 128.048071,197.514611 C113.749448,190.489519 63.6141354,162.797643 63.6141354,120.119854 C63.6141354,85.0395185 92.4974016,56.4997861 128,56.4997861" id="Fill-1" fill="#FFFFFF"></path>
        <path d="M126.5,146 C112.415989,146 101,134.584011 101,120.5 C101,106.415989 112.415989,95 126.5,95 C140.584011,95 152,106.415989 152,120.5 C152,134.584011 140.584011,146 126.5,146" id="Fill-3" fill="#FFFFFF"></path>
    </g>
</svg>